# xmcd CD database file
#
# Track frame offsets:
#	182
#	16010
#	31662
#	49312
#	61410
#	78175
#	90677
#	104372
#	114082
#	126262
#
# Disc length: 1915 seconds
#
# Revision: 0
# Processed by: cddbd v1.5.1PL2 Copyright (c) Steve Scherf et al.
# Submitted via: CDex 1.51
#
DISCID=6f07790a
DTITLE=Johnny Paycheck - Survivor
DYEAR=1991
DGENRE=Country
TTITLE0=Buried treasures
TTITLE1=I.O. Blues
TTITLE2=Everything is changing
TTITLE3=Palimony
TTITLE4=I never got over you
TTITLE5=He left it all
TTITLE6=I can't quit drinkin'
TTITLE7=Ol pay ain't checked out yet
TTITLE8=You're every step I take
TTITLE9=I'm a survivor
EXTD=YEAR: 1991
EXTT0=
EXTT1=
EXTT2=
EXTT3=
EXTT4=
EXTT5=
EXTT6=
EXTT7=
EXTT8=
EXTT9=
PLAYORDER=
